<?xml version="1.0" standalone="no"?>
<!DOCTYPE svg PUBLIC "-//W3C//DTD SVG 1.1//EN" "http://www.w3.org/Graphics/SVG/1.1/DTD/svg11.dtd" >
<svg xmlns="http://www.w3.org/2000/svg">
<metadata>Generated by IcoMoon</metadata>
<defs>
<font id="icomoon" horiz-adv-x="1024">
<font-face units-per-em="1024" ascent="960" descent="-64" />
<missing-glyph horiz-adv-x="1024" />
<glyph unicode="&#x20;" horiz-adv-x="512" d="" />
<glyph unicode="&#xe900;" glyph-name="nav_history" d="M228.678 680.541h383.395c25.74 0 46.545 20.852 46.545 46.545s-20.806 46.545-46.545 46.545h-383.395c-25.693 0-46.545-20.852-46.545-46.545s20.852-46.545 46.545-46.545zM228.538 494.545h92.625c25.693 0 46.545 20.852 46.545 46.545s-20.852 46.545-46.545 46.545h-92.625c-25.693 0-46.545-20.852-46.545-46.545s20.852-46.545 46.545-46.545zM884.364 960h-744.727c-76.986 0-139.636-62.65-139.636-139.636v-744.727c0-76.986 62.65-139.636 139.636-139.636h87.971c25.693 0 46.545 20.806 46.545 46.545s-20.852 46.545-46.545 46.545h-87.971c-26.112 0-46.545 20.433-46.545 46.545v744.727c0 25.647 20.899 46.545 46.545 46.545h744.727c25.693 0 46.545-20.899 46.545-46.545v-87.971c0-25.693 20.806-46.545 46.545-46.545s46.545 20.852 46.545 46.545v87.971c0 76.986-62.65 139.636-139.636 139.636zM807.284 331.636h-85.83v85.83c0 25.693-20.806 46.545-46.545 46.545s-46.545-20.852-46.545-46.545v-132.375c0-25.74 20.806-46.545 46.545-46.545h132.375c25.74 0 46.545 20.806 46.545 46.545s-20.852 46.545-46.545 46.545zM674.909 634.182c-192.465 0-349.091-156.625-349.091-349.091 0-192.512 156.579-349.091 349.091-349.091s349.091 156.579 349.091 349.091c0 192.465-156.625 349.091-349.091 349.091zM674.909 29.091c-141.126 0-256 114.874-256 256s114.874 256 256 256 256-114.828 256-256-114.874-256-256-256z" />
<glyph unicode="&#xe901;" glyph-name="arrow_username" horiz-adv-x="1792" d="M1761.152 860.544c-45.824 53.504-126.72 59.776-180.48 13.824l-684.672-586.88-684.672 586.88c-53.504 45.824-134.4 39.68-180.48-13.824-45.952-53.632-39.808-134.528 13.824-180.48l768-658.304c24.064-20.608 53.632-30.848 83.328-30.848s59.264 10.24 83.328 30.848l767.872 658.304c53.76 45.952 60.032 126.72 13.952 180.48z" />
<glyph unicode="&#xe902;" glyph-name="arrow-dropdown" horiz-adv-x="1365" d="M1351.168 788.651c-26.965 62.293-88.405 102.741-156.501 102.741h-1024c-68.096 0-129.536-40.448-156.501-102.912-27.136-62.464-14.336-134.997 32.085-184.661l512-545.451c32.256-34.304 77.312-53.76 124.416-53.76s92.16 19.456 124.416 53.76l512 545.451c46.592 49.835 59.221 122.197 32.085 184.832z" />
<glyph unicode="&#xe903;" glyph-name="arrow-left" horiz-adv-x="585" d="M176.567 448l387.145 387.145c28.599 28.599 28.599 74.825 0 103.424s-74.825 28.599-103.424 0l-438.857-438.857c-28.599-28.599-28.599-74.825 0-103.424l438.857-438.857c14.263-14.263 32.987-21.431 51.712-21.431s37.449 7.168 51.712 21.431c28.599 28.599 28.599 74.825 0 103.424l-387.145 387.145z" />
<glyph unicode="&#xe904;" glyph-name="arrow-right" horiz-adv-x="585" d="M408.576 448l-387.145-387.145c-28.599-28.599-28.599-74.825 0-103.424s74.825-28.599 103.424 0l438.857 438.857c28.599 28.599 28.599 74.825 0 103.424l-438.857 438.857c-14.263 14.263-32.987 21.431-51.712 21.431s-37.449-7.168-51.712-21.431c-28.599-28.599-28.599-74.825 0-103.424l387.145-387.145z" />
<glyph unicode="&#xe905;" glyph-name="arrow-sort-down" horiz-adv-x="1229" d="M46.694 657.51l444.621-621.978c57.549-80.486 191.898-80.486 249.242 0l459.571 642.867c33.382 46.694 37.888 108.134 11.674 159.13-26.214 51.2-78.848 83.354-136.192 83.354h-919.347c-1.024 0-2.048 0-3.072 0-84.582 0-153.19-68.608-153.19-153.19 0-43.213 17.818-82.33 46.694-110.182z" />
<glyph unicode="&#xe906;" glyph-name="arrow-sort-up" horiz-adv-x="1229" d="M1182.106 238.49l-444.621 621.978c-57.549 80.486-191.898 80.486-249.242 0l-459.776-642.867c-33.382-46.694-37.888-108.134-11.674-159.13s78.848-83.149 136.192-83.149h919.347c1.024 0 2.048 0 3.072 0 84.787-0.205 153.395 68.403 153.395 152.986 0 43.213-17.818 82.33-46.694 110.182z" />
<glyph unicode="&#xe907;" glyph-name="calendar" horiz-adv-x="1164" d="M221.091 804.864c19.27 0 34.909 14.848 34.909 33.14v73.309c0 18.292-15.639 33.187-34.909 33.187s-34.909-14.848-34.909-33.187v-73.309c0-18.292 15.639-33.14 34.909-33.14zM942.545 804.864c19.27 0 34.909 14.848 34.909 33.14v73.309c0 18.292-15.639 33.187-34.909 33.187s-34.909-14.848-34.909-33.187v-73.309c0-18.292 15.639-33.14 34.909-33.14zM1024 882.409v-44.404c0-43.939-36.538-79.686-81.455-79.686s-81.455 35.747-81.455 79.686v44.404h-558.545v-44.404c0-43.939-36.538-79.686-81.455-79.686s-81.455 35.747-81.455 79.686v44.404c-76.986 0-139.636-62.65-139.636-139.636v-651.636c0-76.986 62.65-139.636 139.636-139.636h884.364c76.986 0 139.636 62.65 139.636 139.636v651.636c0 77.033-62.65 139.636-139.636 139.636zM1070.545 91.136c0-25.693-20.852-46.545-46.545-46.545h-884.364c-25.647 0-46.545 20.852-46.545 46.545v605.091h977.455v-605.091zM551.889 400.337h59.857c33.047 0 59.857 26.81 59.857 59.857v59.857c0 33.047-26.81 59.857-59.857 59.857h-59.857c-33.047 0-59.857-26.81-59.857-59.857v-59.857c0-33.047 26.81-59.857 59.857-59.857zM791.273 400.337h59.857c33.047 0 59.857 26.81 59.857 59.857v59.857c0 33.047-26.81 59.857-59.857 59.857h-59.857c-33.047 0-59.857-26.81-59.857-59.857v-59.857c0-33.047 26.81-59.857 59.857-59.857zM312.506 400.337h59.857c33.047 0 59.857 26.81 59.857 59.857v59.857c0 33.047-26.81 59.857-59.857 59.857h-59.857c-33.047 0-59.857-26.81-59.857-59.857v-59.857c0.047-33.047 26.81-59.857 59.857-59.857zM551.889 160.954h59.857c33.047 0 59.857 26.81 59.857 59.857v59.857c0 33.047-26.81 59.857-59.857 59.857h-59.857c-33.047 0-59.857-26.81-59.857-59.857v-59.857c0-33.047 26.81-59.857 59.857-59.857zM791.273 160.954h59.857c33.047 0 59.857 26.81 59.857 59.857v59.857c0 33.047-26.81 59.857-59.857 59.857h-59.857c-33.047 0-59.857-26.81-59.857-59.857v-59.857c0-33.047 26.81-59.857 59.857-59.857zM312.506 160.954h59.857c33.047 0 59.857 26.81 59.857 59.857v59.857c0 33.047-26.81 59.857-59.857 59.857h-59.857c-33.047 0-59.857-26.81-59.857-59.857v-59.857c0.047-33.047 26.81-59.857 59.857-59.857z" />
<glyph unicode="&#xe908;" glyph-name="close" d="M632.661 448l366.336 366.336c33.365 33.365 33.365 87.296 0 120.661s-87.296 33.365-120.661 0l-366.336-366.336-366.336 366.336c-33.365 33.365-87.296 33.365-120.661 0s-33.365-87.296 0-120.661l366.336-366.336-366.336-366.336c-33.365-33.365-33.365-87.296 0-120.661 16.64-16.64 38.485-25.003 60.331-25.003s43.691 8.363 60.331 25.003l366.336 366.336 366.336-366.336c16.64-16.64 38.485-25.003 60.331-25.003s43.691 8.363 60.331 25.003c33.365 33.365 33.365 87.296 0 120.661l-366.336 366.336z" />
<glyph unicode="&#xe909;" d="M1008.576 324.16c-68.352-274.368-346.176-441.216-620.48-372.8-274.176 68.352-441.088 346.176-372.672 620.48 68.352 274.368 346.176 441.28 620.352 372.864 274.304-68.416 441.216-346.24 372.8-620.544v0z" />
<glyph unicode="&#xe90a;" d="M737.728 520.96c10.176 68.16-41.664 104.768-112.576 129.152l22.976 92.288-56.192 14.016-22.4-89.856c-14.976 3.648-29.952 7.168-44.992 10.56l22.592 90.496-56.128 13.952-23.040-92.224c-12.224 2.816-24.192 5.568-35.84 8.448l0.064 0.256-77.44 19.328-15.040-59.968c0 0 41.664-9.6 40.832-10.176 22.784-5.696 26.88-20.736 26.176-32.704l-26.176-105.088c1.6-0.384 3.584-0.96 5.824-1.92l-5.952 1.472-36.736-147.264c-2.816-6.912-9.856-17.28-25.728-13.376 0.576-0.832-40.832 10.24-40.832 10.24l-27.904-64.32 73.088-18.24c13.568-3.392 26.944-6.976 40.064-10.304l-23.232-93.312 56.128-13.952 22.976 92.352c15.296-4.16 30.208-8 44.8-11.648l-22.976-91.968 56.192-13.952 23.296 93.184c95.808-18.112 167.808-10.816 198.144 75.84 24.448 69.76-1.216 110.016-51.648 136.256 36.672 8.448 64.32 32.576 71.68 82.432v0zM609.344 340.992c-17.344-69.76-134.784-32.064-172.928-22.592l30.848 123.648c38.144-9.536 160.192-28.352 142.080-101.056zM626.752 521.92c-15.808-63.424-113.6-31.168-145.28-23.296l27.968 112.192c31.68-7.936 133.824-22.656 117.312-88.896v0z" />
<glyph unicode="&#xe90b;" horiz-adv-x="640" d="M319.936 960l-6.848-23.296v-677.12l6.848-6.848 314.304 185.792-314.304 521.472z" />
<glyph unicode="&#xe90c;" horiz-adv-x="640" d="M319.936 960l-314.304-521.472 314.304-185.792v707.264z" />
<glyph unicode="&#xe90d;" horiz-adv-x="640" d="M319.936 193.216l-3.84-4.736v-241.216l3.84-11.264 314.496 442.88-314.496-185.664z" />
<glyph unicode="&#xe90e;" horiz-adv-x="640" d="M319.936-64v257.216l-314.304 185.728 314.304-442.944z" />
<glyph unicode="&#xe90f;" horiz-adv-x="640" d="M319.936 252.736l314.304 185.792-314.304 142.848v-328.64z" />
<glyph unicode="&#xe910;" horiz-adv-x="640" d="M5.568 438.528l314.304-185.792v328.64l-314.304-142.848z" />
<glyph unicode="&#xe911;" glyph-name="coin_PPY" horiz-adv-x="768" d="M347.008 257.216l-101.632 58.624c-7.936 4.608-17.728 4.608-25.6 0-7.936-4.544-12.8-12.992-12.8-22.144v-117.376c0-9.152 4.928-17.664 12.864-22.208l101.632-58.432c3.968-2.24 8.32-3.392 12.736-3.392s8.832 1.152 12.8 3.456c7.872 4.544 12.8 12.992 12.8 22.144v117.12c0 9.152-4.864 17.6-12.8 22.208zM269.696 823.232l101.568-58.624c3.968-2.304 8.384-3.456 12.8-3.456s8.832 1.152 12.8 3.456l101.44 58.624c7.872 4.544 12.8 12.992 12.8 22.144s-4.928 17.6-12.8 22.208l-101.568 58.56c-7.872 4.48-17.6 4.544-25.536-0.064l-101.504-58.56c-7.936-4.544-12.8-12.992-12.8-22.144s4.864-17.6 12.8-22.144zM309.76 728.96c0 9.152-4.864 17.6-12.8 22.208l-101.632 58.624c-7.936 4.48-17.664 4.48-25.6 0l-101.568-58.624c-7.936-4.608-12.8-13.056-12.8-22.208s4.864-17.6 12.8-22.144l101.632-58.624c3.968-2.304 8.384-3.456 12.8-3.456s8.832 1.152 12.8 3.456l101.568 58.624c7.936 4.544 12.8 12.992 12.8 22.144zM145.344 606.016l-101.632 58.624c-7.936 4.608-17.728 4.608-25.6 0-7.936-4.544-12.8-12.992-12.8-22.144v-117.312c0-9.152 4.928-17.6 12.8-22.208l101.632-58.496c3.968-2.24 8.384-3.392 12.8-3.392s8.832 1.152 12.8 3.456c7.872 4.544 12.8 12.992 12.8 22.144v117.12c0 9.216-4.864 17.664-12.8 22.208zM145.344 373.248l-101.632 58.624c-7.936 4.608-17.728 4.608-25.6 0-7.936-4.544-12.8-12.992-12.8-22.144v-117.376c0-9.152 4.928-17.664 12.864-22.208l101.632-58.432c3.968-2.24 8.32-3.392 12.736-3.392s8.832 1.152 12.8 3.456c7.872 4.544 12.8 12.992 12.8 22.144v117.12c0 9.216-4.864 17.664-12.8 22.208zM145.344 140.864l-101.632 58.624c-7.936 4.608-17.728 4.608-25.6 0-7.936-4.544-12.8-12.992-12.8-22.144v-117.376c0-9.152 4.928-17.664 12.864-22.208l101.632-58.432c3.968-2.24 8.32-3.392 12.736-3.392s8.832 1.152 12.8 3.456c7.872 4.544 12.8 12.992 12.8 22.144v117.12c0 9.216-4.864 17.664-12.8 22.208zM320.32 50.944l-113.152 64.512c-1.024-2.048 0-4.096 0-6.144v-117.248c0-9.216 4.608-17.408 12.8-22.016 3.584-2.56 8.192-3.584 12.8-3.584 4.096 0 8.704 1.024 12.288 3.584l101.888 58.368c6.656 3.584 11.264 10.24 12.288 17.408-4.608-1.024-8.704-1.536-13.312-1.536-8.704 0-17.408 2.048-25.6 6.656zM408.256 642.496v-117.312c0-9.152 4.928-17.6 12.8-22.208l101.632-58.496c3.968-2.24 8.384-3.392 12.8-3.392s8.832 1.152 12.8 3.456c7.872 4.544 12.8 12.992 12.8 22.144v117.12c0 9.152-4.864 17.6-12.8 22.144l-101.632 58.688c-7.936 4.608-17.728 4.608-25.6 0-7.936-4.544-12.8-12.992-12.8-22.144zM749.888 664.64c-7.872 4.608-17.728 4.608-25.6 0l-101.632-58.624c-7.936-4.544-12.8-12.992-12.8-22.144v-117.12c0-9.152 4.864-17.6 12.8-22.144 3.968-2.304 8.384-3.456 12.8-3.456s8.832 1.152 12.8 3.392l101.632 58.496c7.936 4.608 12.864 13.056 12.864 22.208v117.248c-0.064 9.152-4.928 17.6-12.864 22.144zM749.888 431.872c-7.872 4.608-17.728 4.608-25.6 0l-101.632-58.624c-7.936-4.544-12.8-12.992-12.8-22.144v-117.12c0-9.152 4.864-17.6 12.8-22.144 3.968-2.304 8.384-3.456 12.8-3.456s8.832 1.152 12.8 3.392l101.632 58.432c7.936 4.608 12.864 13.056 12.864 22.208v117.312c-0.064 9.152-4.928 17.6-12.864 22.144zM232.512 441.088c4.416 0 8.832 1.152 12.8 3.392l101.632 58.496c7.936 4.608 12.8 13.056 12.8 22.208v117.312c0 9.152-4.864 17.6-12.8 22.144-7.872 4.608-17.664 4.608-25.6 0l-101.632-58.624c-7.936-4.544-12.8-12.992-12.8-22.144v-117.12c0-9.152 4.864-17.6 12.8-22.144 3.904-2.368 8.32-3.52 12.8-3.52zM712.64 728.96c0 9.152-4.928 17.6-12.8 22.144l-101.568 58.624c-7.936 4.608-17.664 4.608-25.6 0l-101.568-58.624c-7.936-4.544-12.8-12.992-12.8-22.144s4.864-17.6 12.8-22.144l101.568-58.624c3.968-2.304 8.384-3.456 12.8-3.456s8.832 1.152 12.8 3.456l101.568 58.624c7.872 4.544 12.8 12.992 12.8 22.144zM548.672 315.84c-7.872 4.608-17.664 4.608-25.6 0l-101.632-58.624c-7.936-4.544-12.8-12.992-12.8-22.144v-117.12c0-9.152 4.864-17.6 12.8-22.144 3.968-2.304 8.384-3.456 12.8-3.456s8.832 1.152 12.736 3.392l101.632 58.432c7.936 4.544 12.864 13.056 12.864 22.208v117.376c0 9.088-4.864 17.536-12.8 22.080zM511.424 380.16c0 9.152-4.928 17.6-12.8 22.208l-101.632 58.496c-7.872 4.48-17.664 4.48-25.536 0l-101.568-58.496c-7.936-4.608-12.8-13.056-12.8-22.208s4.864-17.6 12.8-22.144l101.568-58.624c3.968-2.304 8.384-3.456 12.8-3.456s8.832 1.152 12.8 3.456l101.504 58.624c7.936 4.544 12.864 12.992 12.864 22.144z" />
<glyph unicode="&#xe912;" glyph-name="edit" d="M912.663 304.268c-25.74 0-46.545-20.806-46.545-46.545v-187.951c0-22.109-18.013-40.029-40.076-40.029h-692.876c-22.063 0-40.076 17.967-40.076 40.029v692.922c0 22.109 18.013 40.076 40.076 40.076h187.951c25.74 0 46.545 20.806 46.545 46.545s-20.806 46.545-46.545 46.545h-187.951c-73.449 0-133.167-59.718-133.167-133.167v-692.922c0-73.402 59.718-133.12 133.167-133.12h692.876c73.449 0 133.167 59.718 133.167 133.12v187.951c0 25.74-20.806 46.545-46.545 46.545zM984.995 860.393l-61.254 61.254c-50.223 50.269-137.961 50.269-188.276 0l-55.575-55.575c-0.14-0.14-0.279-0.14-0.419-0.279s-0.14-0.279-0.279-0.419l-360.169-360.215c-8.751-8.751-13.638-20.527-13.638-32.908v-183.715c0-25.74 20.806-46.545 46.545-46.545h183.715c12.381 0 24.204 4.887 32.908 13.638l360.076 360.076c0.14 0.14 0.372 0.186 0.559 0.372s0.186 0.372 0.372 0.559l55.436 55.436c25.228 25.228 39.098 58.74 39.005 94.348-0.047 35.514-13.917 68.887-39.005 93.975zM857.926 855.831l61.254-61.254c7.54-7.587 11.729-17.594 11.729-28.346 0.047-10.659-4.143-20.759-11.729-28.346l-22.993-22.993-117.946 117.9 23.040 23.040c15.22 15.127 41.519 15.034 56.646 0zM516.375 335.034h-117.9v117.9l313.996 313.996 117.9-117.853-313.996-314.042z" />
<glyph unicode="&#xe913;" glyph-name="mess" horiz-adv-x="1587" d="M1477.581 233.574c61.030 77.261 94.362 170.445 94.362 265.574 0 254.054-232.448 460.8-518.144 460.8-131.942 0-259.328-46.131-355.021-126.669-52.019 15.616-107.469 24.474-165.325 24.474-285.747 0-518.195-206.746-518.195-460.8 0-94.822 33.178-187.802 94.054-264.96-11.622-22.426-35.379-59.904-59.648-93.184-9.216-12.646-12.083-28.826-7.885-43.878 4.147-15.053 15.002-27.341 29.44-33.434 5.53-2.304 56.013-22.784 119.142-22.784 49.613 0 94.362 12.954 131.226 37.734 66.458-26.419 139.059-40.243 211.917-40.243 137.677 0 262.656 48.282 355.533 126.464 52.89-15.77 108.083-24.218 164.813-24.218 72.704 0 145.254 13.824 211.763 40.141 108.186-73.267 244.275-17.254 250.522-14.592 14.387 6.042 25.242 18.381 29.44 33.434 4.147 15.053 1.229 31.181-7.936 43.776-24.781 33.894-48.998 72.192-60.058 92.365zM533.453 38.502c-68.915 0-137.421 15.002-197.99 43.366-6.963 3.226-14.336 4.864-21.709 4.864-12.851 0-25.549-4.864-35.226-14.080-25.139-23.859-63.078-34.253-103.066-30.976 28.006 44.749 42.394 78.336 42.854 100.147 0.256 13.056-4.454 25.702-13.21 35.379-56.422 62.515-87.45 140.493-87.45 219.75 0 197.632 186.573 358.4 415.795 358.4 55.194 0 107.827-9.523 156.058-26.419 0.819-0.358 1.638-0.461 2.406-0.768 150.835-53.862 257.331-181.965 257.331-331.213 0-197.683-186.573-358.451-415.795-358.451zM1411.84 143.923c-33.434-2.355-73.216 2.458-103.219 30.874-15.258 14.49-37.683 18.125-56.832 9.267-86.221-40.192-187.853-51.712-282.419-35.277 51.814 71.731 82.227 156.774 82.227 248.166 0 164.454-97.69 308.634-243.814 390.195 70.912 45.21 157.030 70.4 245.965 70.4 229.274 0 415.744-160.768 415.744-358.4 0-79.258-30.925-157.286-87.194-219.75-8.653-9.626-13.363-22.17-13.158-35.123 0.41-21.862 14.694-55.45 42.701-100.352z" />
<glyph unicode="&#xe914;" glyph-name="nav_create" d="M884.364 960h-744.727c-76.986 0-139.636-62.65-139.636-139.636v-744.727c0-76.986 62.65-139.636 139.636-139.636h744.727c76.986 0 139.636 62.65 139.636 139.636v744.727c0 76.986-62.65 139.636-139.636 139.636zM930.909 75.636c0-25.693-20.852-46.545-46.545-46.545h-744.727c-25.647 0-46.545 20.852-46.545 46.545v744.727c0 25.647 20.899 46.545 46.545 46.545h744.727c25.693 0 46.545-20.899 46.545-46.545v-744.727zM674.909 494.545h-116.364v116.364c0 25.693-20.852 46.545-46.545 46.545s-46.545-20.852-46.545-46.545v-116.364h-116.364c-25.693 0-46.545-20.852-46.545-46.545s20.852-46.545 46.545-46.545h116.364v-116.364c0-25.74 20.852-46.545 46.545-46.545s46.545 20.806 46.545 46.545v116.364h116.364c25.74 0 46.545 20.852 46.545 46.545s-20.806 46.545-46.545 46.545z" />
<glyph unicode="&#xe915;" glyph-name="nav_dashboard" d="M325.818 960h-186.182c-76.986 0-139.636-62.65-139.636-139.636v-186.182c0-76.986 62.65-139.636 139.636-139.636h186.182c76.986 0 139.636 62.65 139.636 139.636v186.182c0 76.986-62.65 139.636-139.636 139.636zM372.364 634.182c0-25.647-20.899-46.545-46.545-46.545h-186.182c-25.647 0-46.545 20.899-46.545 46.545v186.182c0 25.647 20.899 46.545 46.545 46.545h186.182c25.647 0 46.545-20.899 46.545-46.545v-186.182zM884.364 960h-186.182c-76.986 0-139.636-62.65-139.636-139.636v-186.182c0-76.986 62.65-139.636 139.636-139.636h186.182c76.986 0 139.636 62.65 139.636 139.636v186.182c0 76.986-62.65 139.636-139.636 139.636zM930.909 634.182c0-25.647-20.852-46.545-46.545-46.545h-186.182c-25.693 0-46.545 20.899-46.545 46.545v186.182c0 25.647 20.852 46.545 46.545 46.545h186.182c25.693 0 46.545-20.899 46.545-46.545v-186.182zM325.818 401.455h-186.182c-76.986 0-139.636-62.65-139.636-139.636v-186.182c0-76.986 62.65-139.636 139.636-139.636h186.182c76.986 0 139.636 62.65 139.636 139.636v186.182c0 76.986-62.65 139.636-139.636 139.636zM372.364 75.636c0-25.693-20.899-46.545-46.545-46.545h-186.182c-25.647 0-46.545 20.852-46.545 46.545v186.182c0 25.693 20.899 46.545 46.545 46.545h186.182c25.647 0 46.545-20.852 46.545-46.545v-186.182zM884.364 401.455h-186.182c-76.986 0-139.636-62.65-139.636-139.636v-186.182c0-76.986 62.65-139.636 139.636-139.636h186.182c76.986 0 139.636 62.65 139.636 139.636v186.182c0 76.986-62.65 139.636-139.636 139.636zM930.909 75.636c0-25.693-20.852-46.545-46.545-46.545h-186.182c-25.693 0-46.545 20.852-46.545 46.545v186.182c0 25.693 20.852 46.545 46.545 46.545h186.182c25.693 0 46.545-20.852 46.545-46.545v-186.182z" />
<glyph unicode="&#xe916;" glyph-name="nav_sweeps" d="M732.3 485.655c82.665 2.746 158.348 1.955 221.51 65.164 93.603 93.603 93.603 245.388 0 338.991-46.825 46.778-108.172 70.191-169.519 70.191s-122.694-23.412-169.519-70.191c-63.162-63.162-62.371-138.845-65.164-221.51 4.934-67.119-18.153-135.913-69.492-187.206-46.778-46.778-108.125-70.144-169.472-70.144-1.21 0-2.42 0-3.631 0.047-88.623-3.677-169.751 1.35-236.823-65.722-93.603-93.603-93.603-245.388 0-338.991 46.825-46.871 108.172-70.284 169.519-70.284s122.694 23.412 169.519 70.191c67.072 67.072 62.045 148.201 65.722 236.823-0.931 62.557 22.388 125.393 70.144 173.103 46.778 46.778 108.125 70.144 169.472 70.144 5.865 0.047 11.823-0.186 17.734-0.605zM381.812 244.41c-0.326-8.704-0.605-17.361-0.884-25.926-2.327-73.868-5.027-113.943-37.562-146.432-27.648-27.695-64.465-42.961-103.657-42.961-39.145 0-76.009 15.267-103.703 42.961-57.158 57.158-57.158 150.202 0 207.36 32.489 32.489 72.564 35.235 146.432 37.562 8.657 0.279 17.361 0.559 26.159 0.884h2.001c27.648 0 54.831 3.351 80.989 9.868-6.609-26.903-9.961-54.831-9.775-83.316zM642.839 669.836l0.233 7.68c2.327 73.868 5.027 113.943 37.562 146.432 27.648 27.695 64.465 42.961 103.657 42.961s75.962-15.267 103.657-42.961c57.158-57.158 57.158-150.202 0-207.36-32.489-32.489-72.564-35.235-146.479-37.562l-7.68-0.233c-6.423 0.372-12.847 0.559-19.27 0.559-27.741 0-54.924-3.351-81.129-9.914 8.099 32.489 11.404 66.281 9.449 100.399zM230.4 499.2c58.973 0 117.946 22.481 162.909 67.491 89.972 89.972 89.972 235.846 0 325.818-44.963 45.009-103.936 67.491-162.909 67.491s-117.946-22.481-162.909-67.491c-89.972-89.972-89.972-235.846 0-325.818 44.963-45.009 103.936-67.491 162.909-67.491zM133.306 826.694c25.926 25.926 60.416 40.215 97.094 40.215s71.168-14.289 97.094-40.215c53.527-53.527 53.527-140.66 0-194.188-25.926-25.926-60.416-40.215-97.094-40.215s-71.168 14.289-97.094 40.215c-53.527 53.527-53.527 140.66 0 194.188zM793.6 396.8c-58.973 0-117.946-22.481-162.909-67.491-89.972-89.972-89.972-235.846 0-325.818 45.009-45.009 103.936-67.491 162.909-67.491s117.946 22.481 162.909 67.491c89.972 89.972 89.972 235.846 0 325.818-44.963 45.009-103.936 67.491-162.909 67.491zM890.694 69.306c-25.926-25.926-60.416-40.215-97.094-40.215s-71.168 14.289-97.094 40.215c-53.527 53.527-53.527 140.66 0 194.188 25.926 25.926 60.416 40.215 97.094 40.215s71.168-14.289 97.094-40.215c53.527-53.527 53.527-140.66 0-194.188z" />
<glyph unicode="&#xe917;" glyph-name="notification" horiz-adv-x="922" d="M460.8-64c50.637 0 92.006 41.421 92.006 92.262h-184.269c0-50.842 41.626-92.262 92.262-92.262zM888.73 207.667l-77.312 77.312v232.090c0 148.326-92.928 278.118-230.554 328.243-2.97 62.72-56.781 114.688-120.064 114.688s-117.094-51.968-120.115-114.688c-137.574-50.176-230.554-179.917-230.554-328.243v-232.090l-77.312-77.312c-9.626-9.626-15.002-22.579-15.002-36.198v-46.080c0-28.314 22.886-51.2 51.2-51.2h783.514c28.314 0 51.2 22.886 51.2 51.2v46.080c0 13.568-5.376 26.573-15.002 36.198zM146.534 176.538l50.995 50.995c9.626 9.626 15.002 22.579 15.002 36.198v253.338c0 116.326 76.851 212.941 191.13 240.435 23.040 5.53 39.27 26.163 39.27 49.818v32.41c0 8.704 9.216 17.869 17.869 17.869 8.499 0 17.869-9.37 17.869-17.869v-32.461c0-23.654 16.179-44.237 39.27-49.818 114.278-27.494 191.13-124.109 191.13-240.435v-253.286c0-13.619 5.376-26.624 15.002-36.198l50.995-50.995h-628.531z" />
<glyph unicode="&#xe918;" glyph-name="plus" d="M674.909 494.545h-116.364v116.364c0 25.74-20.852 46.545-46.545 46.545s-46.545-20.806-46.545-46.545v-116.364h-116.364c-25.693 0-46.545-20.806-46.545-46.545s20.852-46.545 46.545-46.545h116.364v-116.364c0-25.74 20.852-46.545 46.545-46.545s46.545 20.806 46.545 46.545v116.364h116.364c25.693 0 46.545 20.806 46.545 46.545s-20.852 46.545-46.545 46.545zM512 960c-282.298 0-512-229.702-512-512s229.702-512 512-512 512 229.702 512 512-229.702 512-512 512zM512 29.091c-230.959 0-418.909 187.904-418.909 418.909s187.951 418.909 418.909 418.909 418.909-187.904 418.909-418.909-187.951-418.909-418.909-418.909z" />
<glyph unicode="&#xe919;" glyph-name="search" d="M1008.947 23.398l-225.792 225.792c136.090 172.134 124.928 423.373-33.946 582.246-82.944 82.893-193.126 128.563-310.374 128.563s-227.482-45.67-310.426-128.563c-171.162-171.162-171.162-449.638 0-620.8 82.893-82.893 193.126-128.563 310.426-128.563 99.994 0 194.714 33.485 271.923 94.669l225.792-225.792c9.984-9.984 23.091-14.95 36.198-14.95s26.214 5.018 36.198 15.002c19.968 19.968 19.968 52.378 0 72.397zM200.806 283.034c-63.539 63.59-98.611 148.122-98.611 237.978s35.072 174.387 98.611 237.978c63.642 63.59 148.122 98.611 238.029 98.611s174.387-35.021 237.926-98.56c131.226-131.226 131.226-344.73 0-476.006-63.539-63.539-148.070-98.56-237.926-98.56s-174.387 35.021-238.029 98.56z" />
<glyph unicode="&#xe91a;" glyph-name="trash" horiz-adv-x="979" d="M821.203 802.349h-164.508v17.898c0 73.639-59.926 133.565-133.565 133.565h-66.783c-73.639 0-133.565-59.926-133.565-133.565v-17.853h-164.063c-70.478 0-127.777-57.121-127.777-127.332v-25.823c0-56.765 37.621-104.448 89.043-120.832v-458.886c0-70.211 57.121-127.288 127.332-127.288h484.397c70.478 0 127.777 57.077 127.777 127.288v458.975c51.467 16.473 89.043 64.022 89.043 120.698v25.823c0 70.211-57.121 127.332-127.332 127.332zM411.826 820.246c0 24.576 19.946 44.522 44.522 44.522h66.783c24.576 0 44.522-19.946 44.522-44.522v-17.853h-155.826v17.853zM770.449 69.521c0-21.103-17.408-38.244-38.734-38.244h-484.397c-21.148 0-38.289 17.185-38.289 38.244v452.341h561.419v-452.341zM859.492 649.194c0-21.148-17.408-38.289-38.734-38.289h-662.483c-21.148 0-38.289 17.185-38.289 38.289v25.823c0 21.148 17.408 38.289 38.734 38.289h662.483c21.148 0 38.289-17.185 38.289-38.289v-25.823zM489.739 108.433c24.621 0 44.522 19.901 44.522 44.522v237.434c0 24.621-19.901 44.522-44.522 44.522s-44.522-19.901-44.522-44.522v-237.434c0-24.621 19.946-44.522 44.522-44.522zM311.652 108.433c24.621 0 44.522 19.901 44.522 44.522v237.434c0 24.621-19.901 44.522-44.522 44.522s-44.522-19.901-44.522-44.522v-237.434c0-24.621 19.946-44.522 44.522-44.522zM667.826 108.433c24.621 0 44.522 19.901 44.522 44.522v237.434c0 24.621-19.901 44.522-44.522 44.522s-44.522-19.901-44.522-44.522v-237.434c0-24.621 19.946-44.522 44.522-44.522z" />
<glyph unicode="&#xe91b;" glyph-name="password" d="M512 723.692c-94.523 0-173.292-74.831-173.292-169.354 0-43.323 15.754-86.646 47.262-114.215-11.815-51.2-31.508-126.031-35.446-161.477-3.938-27.569 3.938-55.138 23.631-74.831s43.323-31.508 70.892-31.508h129.969c27.569 0 55.138 11.815 70.892 31.508s27.569 43.323 23.631 70.892c-3.938 35.446-23.631 110.277-35.446 161.477 31.508 31.508 47.262 70.892 47.262 114.215 3.938 98.462-74.831 173.292-169.354 173.292zM555.323 440.123c19.692-82.708 35.446-149.662 39.385-173.292 0-3.938 0-7.877-3.938-7.877-3.938-3.938-7.877-7.877-15.754-7.877h-129.969c-3.938 0-11.815 3.938-15.754 7.877s-3.938 7.877-3.938 7.877c3.938 27.569 15.754 90.585 39.385 173.292l7.877 23.631-19.692 15.754c-23.631 15.754-35.446 43.323-35.446 70.892 0 55.138 43.323 94.523 94.523 94.523s94.523-39.385 94.523-90.585c0-27.569-11.815-55.138-35.446-70.892l-19.692-15.754 3.938-27.569zM831.015 940.308h-638.031c-90.585 0-165.415-74.831-165.415-169.354v-649.846c0-90.585 74.831-169.354 165.415-169.354h641.969c90.585 0 165.415 74.831 165.415 169.354v653.785c-3.938 90.585-74.831 165.415-169.354 165.415zM917.662 121.108c0-47.262-39.385-90.585-86.646-90.585h-638.031c-47.262 0-86.646 39.385-86.646 90.585v653.785c0 47.262 39.385 90.585 86.646 90.585h641.969c47.262 0 86.646-39.385 86.646-90.585v-653.785z" />
<glyph unicode="&#xe91c;" glyph-name="user" horiz-adv-x="788" d="M744.369 113.231h35.446v11.815c-3.938 220.554-39.385 303.262-248.123 346.585 51.2 47.262 86.646 122.092 86.646 204.8 0 70.892 0 259.938-220.554 259.938s-224.492-185.108-224.492-256c0-82.708 35.446-157.538 86.646-204.8-204.8-43.323-244.185-126.031-248.123-330.831v0-63.015h3.938c7.877-15.754 74.831-122.092 382.031-122.092 283.569 0 362.338 94.523 378.092 118.154h7.877v39.385l-39.385-3.938zM252.062 680.369c0 137.846 35.446 181.169 141.785 181.169s141.785-47.262 141.785-181.169c0-102.4-63.015-181.169-141.785-181.169s-141.785 78.769-141.785 181.169zM27.569 121.108v0zM701.046 109.292c-15.754-19.692-90.585-74.831-307.2-74.831-220.554 0-291.446 59.077-307.2 74.831v15.754c0 3.938 0 7.877 0 11.815 3.938 185.108 19.692 232.369 192.985 263.877 19.692-15.754 55.138-35.446 110.277-35.446s90.585 19.692 110.277 35.446c173.292-35.446 189.046-78.769 192.985-271.754 0-3.938 0-7.877 0-11.815v0 0c7.877-3.938 7.877-3.938 7.877-7.877v0z" />
<glyph unicode="&#xe91d;" glyph-name="verify" d="M957.046 487.385c-23.631 0-39.385-15.754-39.385-39.385 0-228.431-185.108-413.538-413.538-413.538s-417.477 185.108-417.477 413.538c0 228.431 189.046 413.538 417.477 413.538 70.892 0 137.846-15.754 196.923-51.2 19.692-11.815 43.323-3.938 55.138 15.754s3.938 43.323-15.754 55.138c-70.892 39.385-153.6 59.077-236.308 59.077-271.754 0-496.246-220.554-496.246-492.308s220.554-492.308 492.308-492.308c271.754 0 492.308 220.554 492.308 492.308 3.938 23.631-11.815 39.385-35.446 39.385zM1004.308 822.154c-15.754 15.754-39.385 15.754-55.138 0l-445.046-445.046-137.846 137.846c-15.754 15.754-39.385 15.754-55.138 0s-15.754-39.385 0-55.138l153.6-149.662c11.815-11.815 27.569-15.754 43.323-15.754s31.508 3.938 43.323 15.754l452.923 456.862c15.754 15.754 15.754 39.385 0 55.138z" />
<glyph unicode="&#xe91e;" glyph-name="link" d="M916.211 852.211c-48.505 48.505-118.568 80.842-188.632 80.842 0 0 0 0 0 0-70.063 0-134.737-26.947-188.632-80.842l-80.842-80.842c-21.558-21.558-21.558-53.895 0-75.453s53.895-21.558 75.453 0l80.842 80.842c32.337 32.337 70.063 48.505 113.179 48.505 0 0 0 0 0 0 43.116 0 80.842-16.168 113.179-48.505s48.505-70.063 48.505-113.179c0-43.116-16.168-80.842-48.505-113.179l-129.347-129.347c-64.674-64.674-161.684-64.674-226.358 0-21.558 26.947-53.895 32.337-75.453 10.779-21.558-16.168-32.337-48.505-10.779-75.453 5.389-5.389 10.779-10.779 10.779-16.168 48.505-48.505 118.568-80.842 188.632-80.842s140.126 26.947 188.632 80.842l129.347 134.737c53.895 53.895 80.842 118.568 80.842 188.632 0 75.453-26.947 140.126-80.842 188.632zM490.442 200.084l-80.842-80.842c-64.674-64.674-161.684-64.674-226.358 0-32.337 32.337-48.505 70.063-48.505 113.179s16.168 80.842 48.505 113.179l129.347 129.347c64.674 64.674 161.684 64.674 226.358 0 16.168-21.558 48.505-26.947 75.453-10.779s32.337 48.505 10.779 75.453c-5.389 5.389-5.389 10.779-10.779 16.168-102.4 102.4-274.863 102.4-377.263 0l-129.347-134.737c-53.895-53.895-80.842-118.568-80.842-188.632 0-75.453 26.947-140.126 80.842-188.632 53.895-53.895 118.568-80.842 188.632-80.842s134.737 26.947 188.632 80.842l80.842 80.842c21.558 21.558 21.558 53.895 0 75.453s-53.895 21.558-75.453 0z" />
<glyph unicode="&#xe91f;" glyph-name="404" d="M512 960c-282.893 0-512-229.107-512-512s229.107-512 512-512 512 229.107 512 512-229.107 512-512 512zM229.107 730.893c59.992 59.992 157.22 59.992 217.212 0s59.992-157.22 0-217.212c-59.992-59.992-157.22-59.992-217.212 0s-59.992 157.22 0 217.212zM794.893 165.107c-59.992-59.992-157.22-59.992-217.212 0s-59.992 157.22 0 217.212c59.992 59.992 157.22 59.992 217.212 0s59.992-157.22 0-217.212zM794.893 513.681c-40.339-40.339-88.954-39.822-141.705-41.891-42.925 3.103-86.885-11.895-119.984-44.477-30.513-30.513-45.511-70.853-44.994-110.675-2.586-56.889 1.034-108.606-41.891-151.531-59.992-59.992-157.22-59.992-217.212 0s-59.992 157.22 0 217.212c42.925 42.925 95.16 39.822 151.531 41.891 40.339-0.517 80.162 14.481 110.675 44.994 33.099 33.099 47.58 77.059 44.477 119.984 1.552 52.752 1.552 101.366 41.891 141.705 59.992 59.992 157.22 59.992 217.212 0s59.992-157.22 0-217.212z" />
<glyph unicode="&#xe920;" glyph-name="remove" d="M986.764 643.491c-23.273 60.509-60.509 116.364-111.709 167.564-200.145 200.145-525.964 200.145-726.109 0-97.745-97.745-148.945-228.073-148.945-363.055s51.2-265.309 148.945-363.055c102.4-97.745 232.727-148.945 363.055-148.945s260.655 51.2 363.055 148.945c97.745 97.745 148.945 223.418 148.945 363.055 0 69.818-13.964 134.982-37.236 195.491zM660.945 364.218c18.618-18.618 18.618-46.545 0-65.164-9.309-9.309-23.273-13.964-32.582-13.964-13.964 0-23.273 4.655-32.582 13.964l-83.782 83.782-83.782-83.782c-9.309-9.309-18.618-13.964-32.582-13.964s-23.273 4.655-32.582 13.964c-18.618 18.618-18.618 46.545 0 65.164l83.782 83.782-83.782 83.782c-18.618 18.618-18.618 46.545 0 65.164s46.545 18.618 65.164 0l83.782-83.782 83.782 83.782c18.618 18.618 46.545 18.618 65.164 0s18.618-46.545 0-65.164l-83.782-83.782 83.782-83.782z" />
<glyph unicode="&#xe921;" glyph-name="terms" d="M795.927 727.273h-567.855c-27.927 0-46.545-18.618-46.545-46.545s18.618-46.545 46.545-46.545h567.855c27.927 0 46.545 18.618 46.545 46.545s-18.618 46.545-46.545 46.545zM600.436 541.091h-372.364c-27.927 0-46.545-18.618-46.545-46.545s18.618-46.545 46.545-46.545h372.364c27.927 0 46.545 18.618 46.545 46.545s-23.273 46.545-46.545 46.545zM600.436 354.909h-372.364c-27.927 0-46.545-18.618-46.545-46.545s18.618-46.545 46.545-46.545h372.364c27.927 0 46.545 18.618 46.545 46.545s-23.273 46.545-46.545 46.545zM884.364 960h-744.727c-79.127 0-139.636-60.509-139.636-139.636v-744.727c0-79.127 60.509-139.636 139.636-139.636h744.727c79.127 0 139.636 60.509 139.636 139.636v744.727c0 79.127-60.509 139.636-139.636 139.636zM930.909 75.636c0-27.927-18.618-46.545-46.545-46.545h-744.727c-27.927 0-46.545 18.618-46.545 46.545v744.727c0 27.927 18.618 46.545 46.545 46.545h744.727c27.927 0 46.545-18.618 46.545-46.545v-744.727z" />
<glyph unicode="&#xe922;" glyph-name="check" horiz-adv-x="1408" d="M1369.6 883.2c-51.2 51.2-128 51.2-179.2 0l-588.8-588.8-384 384c-51.2 51.2-128 51.2-179.2 0s-51.2-128 0-179.2l473.6-486.4c25.6-25.6 64-38.4 89.6-38.4s64 12.8 89.6 38.4l678.4 691.2c51.2 38.4 51.2 128 0 179.2z" />
</font>
</defs>
</svg>
