<?xml version="1.0" encoding="utf-8"?>
<!-- Generator: Adobe Illustrator 22.0.1, SVG Export Plug-In . SVG Version: 6.00 Build 0)  -->
<svg version="1.1" id="Слой_1" xmlns="http://www.w3.org/2000/svg" xmlns:xlink="http://www.w3.org/1999/xlink" x="0px" y="0px"
	 viewBox="0 0 22 22" style="enable-background:new 0 0 22 22;" xml:space="preserve">
<style type="text/css">
	.st0{fill:#4E505C;}
</style>
<path class="st0" d="M21.2,6.8c-0.5-1.3-1.3-2.5-2.4-3.6c-4.3-4.3-11.3-4.3-15.6,0C1.1,5.3,0,8.1,0,11s1.1,5.7,3.2,7.8
	c2.2,2.1,5,3.2,7.8,3.2s5.6-1.1,7.8-3.2c2.1-2.1,3.2-4.8,3.2-7.8C22,9.5,21.7,8.1,21.2,6.8z M14.2,12.8c0.4,0.4,0.4,1,0,1.4
	c-0.2,0.2-0.5,0.3-0.7,0.3c-0.3,0-0.5-0.1-0.7-0.3L11,12.4l-1.8,1.8c-0.2,0.2-0.4,0.3-0.7,0.3c-0.3,0-0.5-0.1-0.7-0.3
	c-0.4-0.4-0.4-1,0-1.4L9.6,11L7.8,9.2c-0.4-0.4-0.4-1,0-1.4s1-0.4,1.4,0L11,9.6l1.8-1.8c0.4-0.4,1-0.4,1.4,0s0.4,1,0,1.4L12.4,11
	L14.2,12.8z"/>
</svg>
